<svg width="56" height="55" viewBox="0 0 56 55" fill="none" xmlns="http://www.w3.org/2000/svg">
<path d="M46.0985 50.2293V43.4105C46.0985 36.9827 46.0985 33.7665 44.1006 31.7708C42.105 29.7729 38.8888 29.7729 32.461 29.7729L27.9151 34.3188L23.3692 29.7729C16.9414 29.7729 13.7252 29.7729 11.7296 31.7708C9.73169 33.7665 9.73169 36.9827 9.73169 43.4105V50.2293M37.0068 36.5917V43.4105M40.4162 40.0011H33.5974M35.8703 14.9989V12.726C35.8703 11.6813 35.6646 10.6468 35.2648 9.68165C34.865 8.71648 34.279 7.8395 33.5403 7.10079C32.8016 6.36208 31.9246 5.7761 30.9594 5.37631C29.9943 4.97652 28.9598 4.77075 27.9151 4.77075C26.8704 4.77075 25.8359 4.97652 24.8708 5.37631C23.9056 5.7761 23.0286 6.36208 22.2899 7.10079C21.5512 7.8395 20.9652 8.71648 20.5654 9.68165C20.1656 10.6468 19.9599 11.6813 19.9599 12.726V14.9989C19.9599 16.0436 20.1656 17.0781 20.5654 18.0433C20.9652 19.0084 21.5512 19.8854 22.2899 20.6241C23.0286 21.3628 23.9056 21.9488 24.8708 22.3486C25.8359 22.7484 26.8704 22.9542 27.9151 22.9542C28.9598 22.9542 29.9943 22.7484 30.9594 22.3486C31.9246 21.9488 32.8016 21.3628 33.5403 20.6241C34.279 19.8854 34.865 19.0084 35.2648 18.0433C35.6646 17.0781 35.8703 16.0436 35.8703 14.9989Z" stroke="black" stroke-width="3.40939" stroke-linecap="round" stroke-linejoin="round"/>
</svg>
