<svg width="56" height="55" viewBox="0 0 56 55" fill="none" xmlns="http://www.w3.org/2000/svg">
<path d="M16.3438 6.94629V8.65908H9.49261V46.3405H47.1741V8.65908H40.3229V6.94629H36.8973V8.65908H19.7694V6.94629H16.3438ZM12.9182 12.0847H16.3438V13.7975H19.7694V12.0847H36.8973V13.7975H40.3229V12.0847H43.7485V15.5103H12.9182V12.0847ZM12.9182 18.9358H43.7485V42.9149H12.9182V18.9358ZM23.195 22.3614V25.787H26.6205V22.3614H23.195ZM30.0461 22.3614V25.787H33.4717V22.3614H30.0461ZM36.8973 22.3614V25.787H40.3229V22.3614H36.8973ZM16.3438 29.2126V32.6382H19.7694V29.2126H16.3438ZM23.195 29.2126V32.6382H26.6205V29.2126H23.195ZM30.0461 29.2126V32.6382H33.4717V29.2126H30.0461ZM36.8973 29.2126V32.6382H40.3229V29.2126H36.8973ZM16.3438 36.0638V39.4894H19.7694V36.0638H16.3438ZM23.195 36.0638V39.4894H26.6205V36.0638H23.195ZM30.0461 36.0638V39.4894H33.4717V36.0638H30.0461Z" fill="black"/>
</svg>
