<svg width="56" height="55" viewBox="0 0 56 55" fill="none" xmlns="http://www.w3.org/2000/svg">
<path d="M48.8183 14.2578L29.9776 3.94896C29.4742 3.6708 28.9085 3.5249 28.3333 3.5249C27.7582 3.5249 27.1925 3.6708 26.689 3.94896L7.84832 14.2621C7.31027 14.5565 6.86112 14.99 6.54778 15.5172C6.23444 16.0445 6.06841 16.6462 6.06702 17.2595V37.7359C6.06841 38.3493 6.23444 38.951 6.54778 39.4782C6.86112 40.0055 7.31027 40.4389 7.84832 40.7333L26.689 51.0465C27.1925 51.3246 27.7582 51.4705 28.3333 51.4705C28.9085 51.4705 29.4742 51.3246 29.9776 51.0465L48.8183 40.7333C49.3564 40.4389 49.8055 40.0055 50.1189 39.4782C50.4322 38.951 50.5982 38.3493 50.5996 37.7359V17.2616C50.5994 16.6472 50.4339 16.0442 50.1205 15.5157C49.8071 14.9872 49.3573 14.5528 48.8183 14.2578ZM28.3333 6.94635L45.5341 16.3667L39.1603 19.8565L21.9575 10.4362L28.3333 6.94635ZM28.3333 25.7871L11.1326 16.3667L18.3906 12.393L35.5913 21.8134L28.3333 25.7871ZM9.4926 19.3641L26.6205 28.7374V47.1049L9.4926 37.7381V19.3641ZM47.1741 37.7295L30.0461 47.1049V28.7459L36.8973 24.997V32.6382C36.8973 33.0925 37.0777 33.5282 37.399 33.8494C37.7202 34.1706 38.1558 34.351 38.6101 34.351C39.0644 34.351 39.5 34.1706 39.8212 33.8494C40.1424 33.5282 40.3229 33.0925 40.3229 32.6382V23.1215L47.1741 19.3641V37.7274V37.7295Z" fill="black"/>
</svg>
